{"asset":{"version":"2.0","generator":"Blockbench 5.0.4 glTF exporter"},"scenes":[{"nodes":[3,4],"name":"blockbench_export"}],"scene":0,"nodes":[{"translation":[0,-0.1875,0],"name":"base","mesh":0},{"rotation":[0.25033147657184807,-0.12629702512136268,-0.03295676411542444,0.9593211479905425],"translation":[0,0.01875,0.0625],"name":"baseofdial","mesh":1},{"rotation":[0.2419503946639983,-0.1265798144896066,-0.03185337374977151,0.961469146497416],"translation":[5.204170427930421e-18,0.25312499999999993,0.19062499999999996],"name":"dial","mesh":2},{"name":"phone base","children":[0,1,2]},{"translation":[0,0.6437499999999999,-0.15625000000000003],"name":"phone","mesh":3}],"bufferViews":[{"buffer":0,"byteOffset":0,"byteLength":10464,"target":34962,"byteStride":12},{"buffer":0,"byteOffset":10464,"byteLength":10464,"target":34962,"byteStride":12},{"buffer":0,"byteOffset":20928,"byteLength":6976,"target":34962,"byteStride":8},{"buffer":0,"byteOffset":27904,"byteLength":2616,"target":34963},{"buffer":0,"byteOffset":30520,"byteLength":2592,"target":34962,"byteStride":12},{"buffer":0,"byteOffset":33112,"byteLength":2592,"target":34962,"byteStride":12},{"buffer":0,"byteOffset":35704,"byteLength":1728,"target":34962,"byteStride":8},{"buffer":0,"byteOffset":37432,"byteLength":576,"target":34963},{"buffer":0,"byteOffset":38008,"byteLength":1440,"target":34962,"byteStride":12},{"buffer":0,"byteOffset":39448,"byteLength":1440,"target":34962,"byteStride":12},{"buffer":0,"byteOffset":40888,"byteLength":960,"target":34962,"byteStride":8},{"buffer":0,"byteOffset":41848,"byteLength":288,"target":34963},{"buffer":0,"byteOffset":42136,"byteLength":6744,"target":34962,"byteStride":12},{"buffer":0,"byteOffset":48880,"byteLength":6744,"target":34962,"byteStride":12},{"buffer":0,"byteOffset":55624,"byteLength":4496,"target":34962,"byteStride":8},{"buffer":0,"byteOffset":60120,"byteLength":1620,"target":34963}],"buffers":[{"byteLength":61740,"uri":"data:application/octet-stream;base64,"}],"accessors":[{"bufferView":0,"componentType":5126,"count":872,"max":[0.296875,0.59375,0.40625],"min":[-0.296875,0.1875,-0.40625],"type":"VEC3"},{"bufferView":1,"componentType":5126,"count":872,"max":[1,1,0.9325714111328125],"min":[-1,-1,-0.9457666873931885],"type":"VEC3"},{"bufferView":2,"componentType":5126,"count":872,"max":[0.609375,0.609375],"min":[0,0],"type":"VEC2"},{"bufferView":3,"componentType":5123,"count":1308,"max":[871],"min":[0],"type":"SCALAR"},{"bufferView":4,"componentType":5126,"count":216,"max":[0.20937499403953552,0.265625,0.20937499403953552],"min":[-0.20937499403953552,0.24687500298023224,-0.20937499403953552],"type":"VEC3"},{"bufferView":5,"componentType":5126,"count":216,"max":[0.6710736751556396,1,0.6710736751556396],"min":[-0.6710736751556396,-1,-0.6710736751556396],"type":"VEC3"},{"bufferView":6,"componentType":5126,"count":216,"max":[0.6912093758583069,0.6109374761581421],"min":[0,0.109375],"type":"VEC2"},{"bufferView":7,"componentType":5123,"count":288,"max":[215],"min":[0],"type":"SCALAR"},{"bufferView":8,"componentType":5126,"count":120,"max":[0.171875,0.0062500000931322575,0.171875],"min":[-0.171875,-0.0062500000931322575,-0.171875],"type":"VEC3"},{"bufferView":9,"componentType":5126,"count":120,"max":[0.6710736751556396,1,0.6710736751556396],"min":[-0.6710736751556396,-1,-0.6710736751556396],"type":"VEC3"},{"bufferView":10,"componentType":5126,"count":120,"max":[0.6480984091758728,0.490234375],"min":[0.18808594346046448,0.03125],"type":"VEC2"},{"bufferView":11,"componentType":5123,"count":144,"max":[119],"min":[0],"type":"SCALAR"},{"bufferView":12,"componentType":5126,"count":562,"max":[0.39658141136169434,-0.203125,0.07187499850988388],"min":[-0.3965071737766266,-0.38639697432518005,-0.07187499850988388],"type":"VEC3"},{"bufferView":13,"componentType":5126,"count":562,"max":[0.9988592863082886,0.9999996423721313,1],"min":[-0.9988592863082886,-0.9999995827674866,-1],"type":"VEC3"},{"bufferView":14,"componentType":5126,"count":562,"max":[0.5737453103065491,0.6099510192871094],"min":[0.12547343969345093,0],"type":"VEC2"},{"bufferView":15,"componentType":5123,"count":810,"max":[561],"min":[0],"type":"SCALAR"}],"materials":[{"pbrMetallicRoughness":{"metallicFactor":0,"roughnessFactor":1,"baseColorTexture":{"index":0}},"alphaMode":"MASK","alphaCutoff":0.05,"doubleSided":true}],"textures":[{"sampler":0,"source":0,"name":"texture.png"}],"samplers":[{"magFilter":9728,"minFilter":9728,"wrapS":33071,"wrapT":33071}],"images":[{"mimeType":"image/png","uri":"data:image/png;base64,"}],"meshes":[{"primitives":[{"mode":4,"attributes":{"POSITION":0,"NORMAL":1,"TEXCOORD_0":2},"indices":3,"material":0}]},{"primitives":[{"mode":4,"attributes":{"POSITION":4,"NORMAL":5,"TEXCOORD_0":6},"indices":7,"material":0}]},{"primitives":[{"mode":4,"attributes":{"POSITION":8,"NORMAL":9,"TEXCOORD_0":10},"indices":11,"material":0}]},{"primitives":[{"mode":4,"attributes":{"POSITION":12,"NORMAL":13,"TEXCOORD_0":14},"indices":15,"material":0}]}]}